REM DIRINDEX 1\8,1\2\11,1\3\12,1\3\14,1\5\15,1\5\16,1\6\17,1\6\18,1\4\19,1\4\20,1\4\21,1\4\22,1\7\23,1\7\24,1\7\25,1\2\9\26,1\2\9\27,1\2\10\28,1\2\10\29,1\2\10\30,1\2\10\31,1\2\10\32,1\3\13\33,1\3\13\34,1\3\13\35
REM DIRNAME cjc123,folder01,folder02,folder03,folder04,folder05,folder06,folder07,folder08,folder09,folder10,folder11,folder12,folder13,folder14,folder15,folder16,folder17,folder18,folder19,folder20,folder21,folder22,folder23,folder24,folder25,folder26,folder27,folder28,folder29,folder30,folder31,folder32,folder33,folder34
TITLE ""
FILE "83 083_UNIT2_SET2.mp3" MP3
  TRACK 01 AUDIO
    TITLE "14:cjc123_7549"
    INDEX 01 00:00:00
  TRACK 02 AUDIO
    TITLE "0:"
    INDEX 01 00:02:51
  TRACK 03 AUDIO
    TITLE "33:cjc123_7550"
    INDEX 01 00:03:27
  TRACK 04 AUDIO
    TITLE "0:"
    INDEX 01 00:04:23
  TRACK 05 AUDIO
    TITLE "0:"
    INDEX 01 00:04:44
  TRACK 06 AUDIO
    TITLE "0:"
    INDEX 01 00:05:57
  TRACK 07 AUDIO
    TITLE "34:cjc123_7551"
    INDEX 01 00:05:63
  TRACK 08 AUDIO
    TITLE "0:"
    INDEX 01 00:06:67
  TRACK 09 AUDIO
    TITLE "35:cjc123_7552"
    INDEX 01 00:07:41
  TRACK 10 AUDIO
    TITLE "0:"
    INDEX 01 00:10:53
  TRACK 11 AUDIO
    TITLE "33:cjc123_7553"
    INDEX 01 00:11:29
  TRACK 12 AUDIO
    TITLE "0:"
    INDEX 01 00:12:60
  TRACK 13 AUDIO
    TITLE "34:cjc123_7554"
    INDEX 01 00:13:06
  TRACK 14 AUDIO
    TITLE "0:"
    INDEX 01 00:14:31
  TRACK 15 AUDIO
    TITLE "35:cjc123_7555"
    INDEX 01 00:15:09
  TRACK 16 AUDIO
    TITLE "0:"
    INDEX 01 00:19:03
  TRACK 17 AUDIO
    TITLE "33:cjc123_7556"
    INDEX 01 00:19:62
  TRACK 18 AUDIO
    TITLE "0:"
    INDEX 01 00:20:67
  TRACK 19 AUDIO
    TITLE "34:cjc123_7557"
    INDEX 01 00:21:17
  TRACK 20 AUDIO
    TITLE "0:"
    INDEX 01 00:22:27
  TRACK 21 AUDIO
    TITLE "35:cjc123_7558"
    INDEX 01 00:23:16
  TRACK 22 AUDIO
    TITLE "0:"
    INDEX 01 00:26:22
  TRACK 23 AUDIO
    TITLE "33:cjc123_7559"
    INDEX 01 00:27:00
  TRACK 24 AUDIO
    TITLE "0:"
    INDEX 01 00:28:21
  TRACK 25 AUDIO
    TITLE "34:cjc123_7560"
    INDEX 01 00:28:41
  TRACK 26 AUDIO
    TITLE "0:"
    INDEX 01 00:29:56
  TRACK 27 AUDIO
    TITLE "35:cjc123_7561"
    INDEX 01 00:30:40
  TRACK 28 AUDIO
    TITLE "0:"
    INDEX 01 00:34:08
  TRACK 29 AUDIO
    TITLE "33:cjc123_7562"
    INDEX 01 00:34:55
  TRACK 30 AUDIO
    TITLE "0:"
    INDEX 01 00:36:07
  TRACK 31 AUDIO
    TITLE "34:cjc123_7563"
    INDEX 01 00:36:19
  TRACK 32 AUDIO
    TITLE "0:"
    INDEX 01 00:37:40
  TRACK 33 AUDIO
    TITLE "35:cjc123_7564"
    INDEX 01 00:38:10
  TRACK 34 AUDIO
    TITLE "0:"
    INDEX 01 00:42:31
  TRACK 35 AUDIO
    TITLE "33:cjc123_7565"
    INDEX 01 00:43:05
  TRACK 36 AUDIO
    TITLE "0:"
    INDEX 01 00:44:18
  TRACK 37 AUDIO
    TITLE "34:cjc123_7566"
    INDEX 01 00:44:34
  TRACK 38 AUDIO
    TITLE "0:"
    INDEX 01 00:45:57
  TRACK 39 AUDIO
    TITLE "35:cjc123_7567"
    INDEX 01 00:46:31
  TRACK 40 AUDIO
    TITLE "0:"
    INDEX 01 00:49:57
  TRACK 41 AUDIO
    TITLE "33:cjc123_7568"
    INDEX 01 00:50:50
  TRACK 42 AUDIO
    TITLE "0:"
    INDEX 01 00:51:56
  TRACK 43 AUDIO
    TITLE "34:cjc123_7569"
    INDEX 01 00:51:73
  TRACK 44 AUDIO
    TITLE "0:"
    INDEX 01 00:53:21
  TRACK 45 AUDIO
    TITLE "35:cjc123_7570"
    INDEX 01 00:53:70
  TRACK 46 AUDIO
    TITLE "0:"
    INDEX 01 00:57:46
  TRACK 47 AUDIO
    TITLE "33:cjc123_7571"
    INDEX 01 00:58:26
  TRACK 48 AUDIO
    TITLE "0:"
    INDEX 01 00:59:28
  TRACK 49 AUDIO
    TITLE "34:cjc123_7572"
    INDEX 01 00:59:55
  TRACK 50 AUDIO
    TITLE "0:"
    INDEX 01 01:00:70
  TRACK 51 AUDIO
    TITLE "35:cjc123_7573"
    INDEX 01 01:01:42
  TRACK 52 AUDIO
    TITLE "0:"
    INDEX 01 01:05:52
  TRACK 53 AUDIO
    TITLE "33:cjc123_7574"
    INDEX 01 01:06:26
  TRACK 54 AUDIO
    TITLE "0:"
    INDEX 01 01:07:39
  TRACK 55 AUDIO
    TITLE "34:cjc123_7575"
    INDEX 01 01:07:53
  TRACK 56 AUDIO
    TITLE "0:"
    INDEX 01 01:08:60
  TRACK 57 AUDIO
    TITLE "35:cjc123_7576"
    INDEX 01 01:09:38
  TRACK 58 AUDIO
    TITLE "0:"
    INDEX 01 01:12:73
  TRACK 59 AUDIO
    TITLE "33:cjc123_7577"
    INDEX 01 01:13:47
  TRACK 60 AUDIO
    TITLE "0:"
    INDEX 01 01:14:66
  TRACK 61 AUDIO
    TITLE "34:cjc123_7578"
    INDEX 01 01:15:03
  TRACK 62 AUDIO
    TITLE "0:"
    INDEX 01 01:16:28
  TRACK 63 AUDIO
    TITLE "35:cjc123_7579"
    INDEX 01 01:16:73
  TRACK 64 AUDIO
    TITLE "0:"
    INDEX 01 01:20:51
  TRACK 65 AUDIO
    TITLE "33:cjc123_7580"
    INDEX 01 01:21:33
  TRACK 66 AUDIO
    TITLE "0:"
    INDEX 01 01:22:56
  TRACK 67 AUDIO
    TITLE "34:cjc123_7581"
    INDEX 01 01:22:66
  TRACK 68 AUDIO
    TITLE "0:"
    INDEX 01 01:24:10
  TRACK 69 AUDIO
    TITLE "35:cjc123_7582"
    INDEX 01 01:24:55
  TRACK 70 AUDIO
    TITLE "0:"
    INDEX 01 01:28:35
  TRACK 71 AUDIO
    TITLE "33:cjc123_7583"
    INDEX 01 01:29:11
  TRACK 72 AUDIO
    TITLE "0:"
    INDEX 01 01:30:01
  TRACK 73 AUDIO
    TITLE "34:cjc123_7584"
    INDEX 01 01:30:22
  TRACK 74 AUDIO
    TITLE "0:"
    INDEX 01 01:31:34
  TRACK 75 AUDIO
    TITLE "35:cjc123_7585"
    INDEX 01 01:32:06
  TRACK 76 AUDIO
    TITLE "0:"
    INDEX 01 01:36:39
  TRACK 77 AUDIO
    TITLE "33:cjc123_7586"
    INDEX 01 01:37:17
  TRACK 78 AUDIO
    TITLE "0:"
    INDEX 01 01:38:47
  TRACK 79 AUDIO
    TITLE "34:cjc123_7587"
    INDEX 01 01:38:59
  TRACK 80 AUDIO
    TITLE "0:"
    INDEX 01 01:40:09
  TRACK 81 AUDIO
    TITLE "35:cjc123_7588"
    INDEX 01 01:40:58
  TRACK 82 AUDIO
    TITLE "0:"
    INDEX 01 01:44:54
  TRACK 83 AUDIO
    TITLE "33:cjc123_7589"
    INDEX 01 01:45:30
  TRACK 84 AUDIO
    TITLE "0:"
    INDEX 01 01:46:39
  TRACK 85 AUDIO
    TITLE "34:cjc123_7590"
    INDEX 01 01:46:53
  TRACK 86 AUDIO
    TITLE "0:"
    INDEX 01 01:47:54
  TRACK 87 AUDIO
    TITLE "35:cjc123_7591"
    INDEX 01 01:48:34
  TRACK 88 AUDIO
    TITLE "0:"
    INDEX 01 01:52:18
  TRACK 89 AUDIO
    TITLE "33:cjc123_7592"
    INDEX 01 01:52:71
  TRACK 90 AUDIO
    TITLE "0:"
    INDEX 01 01:54:23
  TRACK 91 AUDIO
    TITLE "34:cjc123_7593"
    INDEX 01 01:54:41
  TRACK 92 AUDIO
    TITLE "0:"
    INDEX 01 01:55:62
  TRACK 93 AUDIO
    TITLE "35:cjc123_7594"
    INDEX 01 01:56:36
  TRACK 94 AUDIO
    TITLE "0:"
    INDEX 01 01:59:01
